<svg width="25" height="26" viewBox="0 0 25 26" fill="none" xmlns="http://www.w3.org/2000/svg">
<g clip-path="url(#clip0_17_152)">
<g clip-path="url(#clip1_17_152)">
<path d="M0.00610352 12.9665C0.00610352 5.80528 5.50861 0 12.2964 0C19.0841 0 24.5866 5.80528 24.5869 12.9665C24.5869 20.1278 19.0843 25.933 12.2964 25.9333C5.50861 25.9333 0.00610352 20.128 0.00610352 12.9665ZM12.2964 24.9253C18.5565 24.9253 23.6314 19.5711 23.6314 12.9665C23.6314 6.36193 18.5565 1.00774 12.2964 1.00799C6.03624 1.00799 0.961287 6.36218 0.96152 12.9665C0.96152 19.5711 6.03647 24.9253 12.2964 24.9253Z" fill="#639E7D"/>
<g clip-path="url(#clip2_17_152)">
<g clip-path="url(#clip3_17_152)">
<path d="M17.7927 13.7442C17.5662 13.1056 17.1178 12.5983 16.5298 12.316C16.2121 12.1634 15.8754 12.0865 15.5285 12.0865C15.0952 12.0865 14.6815 12.2145 14.3202 12.4349L12.202 9.63897C12.246 9.56536 12.2865 9.48893 12.3216 9.40852C12.7456 8.42528 12.3327 7.26105 11.4014 6.81374C11.1576 6.69652 10.899 6.63721 10.633 6.63721C9.90657 6.63721 9.2426 7.08733 8.94128 7.78455C8.51707 8.76756 8.93017 9.93155 9.8619 10.38C10.1057 10.4973 10.3645 10.5566 10.6303 10.5566C11.0212 10.5566 11.3921 10.4225 11.7003 10.193L13.7571 12.9075C13.584 13.1042 13.436 13.3276 13.3275 13.5794C13.1129 14.0755 13.0582 14.6192 13.16 15.1436L10.0908 16.3226C9.89924 15.9869 9.61858 15.7194 9.27326 15.5536C9.0295 15.4362 8.77062 15.3769 8.50441 15.3769C7.77822 15.3769 7.11425 15.8275 6.81381 16.524C6.60804 16.9999 6.59027 17.5323 6.76426 18.0225C6.93803 18.5125 7.28224 18.9022 7.73377 19.1188C7.97776 19.236 8.23664 19.296 8.50352 19.296C9.22927 19.296 9.89235 18.8454 10.1932 18.1484C10.3454 17.7944 10.3939 17.4109 10.3379 17.0365L13.4066 15.8575C13.6553 16.3414 14.0422 16.7282 14.5255 16.9601C14.8437 17.1127 15.1803 17.1898 15.5279 17.1898C16.4736 17.1898 17.3374 16.603 17.7285 15.6955C17.996 15.0756 18.0193 14.3829 17.7927 13.7442ZM9.53725 17.8329C9.35304 18.2593 8.94706 18.5353 8.50263 18.5353C8.34019 18.5353 8.18176 18.4987 8.03154 18.4269C7.75511 18.2938 7.54445 18.0556 7.43801 17.7557C7.33135 17.4557 7.34224 17.1303 7.46823 16.8384C7.65244 16.4119 8.05887 16.1355 8.50352 16.1355C8.66573 16.1355 8.82417 16.1726 8.9735 16.2445C9.25038 16.3772 9.46103 16.6159 9.56703 16.9155C9.67347 17.2154 9.66325 17.5412 9.53725 17.8329Z" fill="#639E7D"/>
</g>
</g>
</g>
</g>
<defs>
<clipPath id="clip0_17_152">
<rect width="24.5808" height="25.9333" fill="white" transform="translate(0.00610352)"/>
</clipPath>
<clipPath id="clip1_17_152">
<rect width="24.5808" height="25.9333" fill="white" transform="translate(0.00610352)"/>
</clipPath>
<clipPath id="clip2_17_152">
<rect width="11.3018" height="12.6588" fill="white" transform="translate(6.64551 6.63721)"/>
</clipPath>
<clipPath id="clip3_17_152">
<rect width="11.3018" height="12.6588" fill="white" transform="translate(6.64551 6.63721)"/>
</clipPath>
</defs>
</svg>